<?xml version="1.0" encoding="UTF-8" standalone="no"?>
<!-- Created with Inkscape (http://www.inkscape.org/) -->
<svg
   width="1024mm"
   height="1024mm"
   viewBox="0 0 1024 1024"
   version="1.1"
   id="svg1"
   xml:space="preserve"
   
  xmlns="http://www.w3.org/2000/svg"
   
  xmlns:svg="http://www.w3.org/2000/svg">
  <defs
     id="defs1" />
  <g
     id="layer1">
    <g
       id="g1"
       transform="translate(-42.928463,-246.71297)"
       style="fill:#dc2430;fill-opacity:1;stroke:#dc2430;stroke-width:1.1;stroke-dasharray:none;stroke-opacity:1">
      <path
         style="fill:#dc2430;fill-opacity:1;stroke:#dc2430;stroke-width:1.1;stroke-dasharray:none;stroke-opacity:1"
         d="m 758.07355,641.89059 c -20.25118,7.5244 -10.18117,41.5741 11.21598,34.50019 23.14893,-7.65302 11.73546,-43.02786 -11.21598,-34.50019 M 162.97871,822.75703 v -2.25398 c -52.72738,-27.35607 -56.21112,-145.54699 -2.25398,-173.55665 -27.159,-9.71545 -60.03691,27.59722 -68.273409,49.58761 -20.556406,54.88296 8.041449,121.1193 70.527389,126.22302 m 24.79381,-178.06461 v 2.25398 c 48.13124,27.89846 58.88984,152.76817 -2.25399,173.55665 26.80063,9.60826 59.21715,-23.73468 69.143,-45.07965 24.587,-52.87296 -3.23838,-127.9559 -66.88901,-130.73098 m 414.73276,15.77787 c -8.09388,19.3382 -20.26307,37.09742 -42.82566,38.3177 v 2.25399 c 27.29576,19.81586 13.45944,65.13163 15.99005,94.66726 1.82892,21.34601 20.69271,30.35176 40.35951,25.85471 6.5322,-1.49365 12.26759,-4.54624 18.03186,-7.82285 v -2.25398 c -26.51834,8.11065 -29.29366,-14.99472 -29.30177,-36.06372 -0.0102,-26.3866 -7.1477,-62.61388 24.7938,-72.12744 v -2.25398 l -24.7938,-2.25399 -2.25399,-38.3177 m -331.33541,49.58762 v 2.25398 c 34.31493,20.85902 -9.51536,128.64319 58.60354,107.6781 7.43798,-2.2892 13.85042,-6.517 20.28584,-10.75686 v -2.25398 c -50.28049,18.60272 -33.80974,-78.0996 -33.80974,-108.19116 l -45.07964,11.26992 m 81.14336,0 c 14.66977,22.17185 13.5239,38.71339 13.5239,65.36549 0,11.5713 -3.47824,30.25762 3.92706,40.05689 10.27991,13.60313 30.85142,5.34977 43.40657,0.51479 v -2.25398 c -17.81494,-1.35528 -18.02605,-14.20467 -18.03186,-29.30177 v -85.65134 l -42.82567,11.26992 M 471.7743,698.78799 c -15.85605,5.50937 -30.75157,10.1876 -40.76126,24.80251 -27.24682,39.7824 -3.09668,95.21078 45.26923,99.16653 -19.36958,-28.35949 -30.68238,-59.90682 -19.78842,-94.66726 3.35824,-10.71543 12.88611,-18.87838 15.28045,-29.30178 m 20.28585,0 c 29.90523,39.66825 32.6729,82.23312 4.50796,123.96904 45.9123,-9.50679 72.42669,-64.22199 39.03077,-103.29187 -11.48081,-13.43138 -26.95307,-17.45891 -43.53873,-20.67717 m 205.1124,123.96904 c 6.132,-1.79157 12.46355,-3.4013 17.7953,-7.08717 41.77751,-28.88111 -22.51389,-67.00313 -40.09857,-83.74867 -10.30987,-9.81788 -13.74876,-20.90829 -2.49054,-30.87921 -22.07559,-4.56594 -35.45138,22.06566 -29.74523,40.57168 9.56271,31.01353 73.95694,45.65988 54.53904,81.14337 m -9.01593,-123.96904 v 2.25399 c 17.89195,9.30742 26.43305,27.12347 33.80973,45.07965 h 2.25399 l -2.25399,-45.07965 -33.80973,-2.25399 m 49.58761,11.26992 v 2.25398 c 22.24845,16.57977 22.24845,91.61135 0,108.19116 v 2.25398 h 56.34956 v -2.25398 C 767.3759,800.32879 780.5699,729.66359 780.5699,698.78799 l -42.82567,11.26992 m 232.16019,-9.01593 c 21.67526,32.8556 -21.41097,148.37268 54.09558,114.9531 -31.75833,-14.26317 -12.7587,-58.14654 -16.7432,-85.65133 -2.9848,-20.60384 -14.90411,-35.74882 -37.35238,-29.30177 m -180.31859,0 c 23.18256,35.08195 55.79239,76.95484 63.11151,119.46107 12.56618,-9.42855 17.73491,-37.09978 22.53982,-51.8416 -16.88176,-0.72573 -45.94738,-50.91474 -36.06372,-65.36549 l -49.58761,-2.25398 m 78.88938,0 v 2.25398 c 15.1066,11.24976 16.78106,25.27036 13.5239,42.82567 h 2.25398 c 5.77535,-16.93347 14.53526,-32.33007 29.30177,-42.82567 l -45.07965,-2.25398 m 51.8416,0 -2.25398,45.07965 h 2.25398 c 6.90633,-16.50075 16.84826,-30.20463 31.55575,-40.57169 v -2.25398 l -31.55575,-2.25398 m 42.82567,114.9531 v -2.25398 c -37.80607,6.15488 -24.15465,-51.87377 2.25398,-60.85753 -53.72138,-16.51547 -84.60132,73.97438 -22.53983,69.65432 7.48489,-0.52102 13.74016,-3.11174 20.28585,-6.54281 M 638.569,775.4234 v 45.07965 l 38.31771,2.25398 v -2.25398 L 638.569,775.4234 m -464.32038,51.84159 c -12.53473,12.84524 -27.64311,43.74097 2.25572,47.08841 29.22724,3.27223 77.49741,-31.54719 96.91951,2.49921 h 2.25398 c 1.43687,-6.05208 2.55814,-11.78553 1.50265,-18.03186 -10.4608,-61.90648 -103.90379,21.4097 -102.93186,-31.55576 z"
         id="path1" />
    </g>
  </g>
</svg>
